<?xml version="1.0" ?><svg viewBox="0 0 128 128" xmlns="http://www.w3.org/2000/svg"><defs><style>.cls-1{fill:#f2f2f2;}.cls-2{fill:#a64d2c;}</style></defs><title/><g data-name="12 Bills" id="_12_Bills"><path class="cls-1" d="M96.83,14.4A3,3,0,0,0,94,16.48a7,7,0,0,1-13.37,0,3,3,0,0,0-2.85-2.08H74.83A3,3,0,0,0,72,16.48a7,7,0,0,1-13.37,0,3,3,0,0,0-2.85-2.08H52.83A3,3,0,0,0,50,16.48a7,7,0,0,1-13.37,0,3,3,0,0,0-2.85-2.08H32.3a3,3,0,0,0-3,3v90a3,3,0,0,0,3,3h1.47a3,3,0,0,0,2.85-2.08,7,7,0,0,1,13.37,0,3,3,0,0,0,2.85,2.08h2.93a3,3,0,0,0,2.85-2.08,7,7,0,0,1,13.37,0,3,3,0,0,0,2.85,2.08h2.93a3,3,0,0,0,2.85-2.08,7,7,0,0,1,13.37,0,3,3,0,0,0,2.85,2.08H98.3a3,3,0,0,0,3-3v-90a3,3,0,0,0-3-3Z"/><path class="cls-2" d="M53.17,18.6A2,2,0,0,1,55.06,20a8,8,0,0,0,15.28,0,2,2,0,0,1,1.89-1.38,1,1,0,0,0,0-2,4,4,0,0,0-3.8,2.78,6,6,0,0,1-11.46,0,4,4,0,0,0-3.8-2.78A1,1,0,0,0,53.17,18.6Z"/><path class="cls-2" d="M94.24,16.6a4,4,0,0,0-3.8,2.78,6,6,0,0,1-11.46,0,4,4,0,0,0-3.8-2.78,1,1,0,0,0,0,2A2,2,0,0,1,77.06,20a8,8,0,0,0,15.28,0,2,2,0,0,1,1.89-1.38A1,1,0,0,0,94.24,16.6Z"/><path class="cls-2" d="M97.2,16.6a1,1,0,0,0,0,2,.5.5,0,0,1,.5.5v93a.5.5,0,0,1-.5.5,1,1,0,0,0,0,2,2.5,2.5,0,0,0,2.5-2.5v-93A2.5,2.5,0,0,0,97.2,16.6Z"/><path class="cls-2" d="M94.24,112.6a2,2,0,0,1-1.89-1.38,8,8,0,0,0-15.28,0,2,2,0,0,1-1.89,1.38,1,1,0,0,0,0,2,4,4,0,0,0,3.8-2.78,6,6,0,0,1,11.46,0,4,4,0,0,0,3.8,2.78A1,1,0,0,0,94.24,112.6Z"/><path class="cls-2" d="M72.24,112.6a2,2,0,0,1-1.89-1.38,8,8,0,0,0-15.28,0,2,2,0,0,1-1.89,1.38,1,1,0,0,0,0,2,4,4,0,0,0,3.8-2.78,6,6,0,0,1,11.46,0,4,4,0,0,0,3.8,2.78A1,1,0,0,0,72.24,112.6Z"/><path class="cls-2" d="M50.24,112.6a2,2,0,0,1-1.89-1.38,8,8,0,0,0-15.28,0,2,2,0,0,1-1.89,1.38,1,1,0,0,0,0,2,4,4,0,0,0,3.8-2.78,6,6,0,0,1,11.46,0,4,4,0,0,0,3.8,2.78A1,1,0,0,0,50.24,112.6Z"/><path class="cls-2" d="M28.2,18.6a1,1,0,0,0,0-2,2.5,2.5,0,0,0-2.5,2.5v93a2.5,2.5,0,0,0,2.5,2.5,1,1,0,0,0,0-2,.5.5,0,0,1-.5-.5v-93A.5.5,0,0,1,28.2,18.6Z"/><path class="cls-2" d="M31.17,18.6A2,2,0,0,1,33.06,20a8,8,0,0,0,15.28,0,2,2,0,0,1,1.89-1.38,1,1,0,0,0,0-2,4,4,0,0,0-3.8,2.78,6,6,0,0,1-11.46,0,4,4,0,0,0-3.8-2.78A1,1,0,0,0,31.17,18.6Z"/><path class="cls-2" d="M47.7,82.88a1,1,0,0,0,2,0,5,5,0,0,0-4-4.9v-.53a1,1,0,0,0-2,0V78a5,5,0,0,0,0,9.8V93.7a3,3,0,0,1-2-2.82,1,1,0,0,0-2,0,5,5,0,0,0,4,4.9v.53a1,1,0,0,0,2,0v-.53a5,5,0,0,0,0-9.8V80.07A3,3,0,0,1,47.7,82.88Zm-4-2.82V85.7A3,3,0,0,1,43.7,80.07Zm2,13.63V88.07A3,3,0,0,1,45.7,93.7Z"/><path class="cls-2" d="M84.7,33.88h-44a1,1,0,0,0,0,2h44A1,1,0,0,0,84.7,33.88Z"/><path class="cls-2" d="M84.7,49.88h-44a1,1,0,0,0,0,2h44A1,1,0,0,0,84.7,49.88Z"/><path class="cls-2" d="M84.7,57.88h-44a1,1,0,0,0,0,2h44A1,1,0,0,0,84.7,57.88Z"/><path class="cls-2" d="M84.7,81.88h-22a1,1,0,0,0,0,2h22A1,1,0,0,0,84.7,81.88Z"/><path class="cls-2" d="M84.7,89.88h-22a1,1,0,0,0,0,2h22A1,1,0,0,0,84.7,89.88Z"/><path class="cls-2" d="M84.7,65.88h-44a1,1,0,0,0,0,2h44A1,1,0,0,0,84.7,65.88Z"/><path class="cls-2" d="M84.7,41.88h-44a1,1,0,0,0,0,2h44A1,1,0,0,0,84.7,41.88Z"/></g></svg>